<svg width="32" height="32" viewBox="0 0 32 32" fill="none" xmlns="http://www.w3.org/2000/svg">
<circle cx="16" cy="16" r="14" fill="white"/>
<path d="M16.0001 13.9172C14.8532 13.9172 13.9173 14.8531 13.9173 16C13.9173 17.1469 14.8532 18.0828 16.0001 18.0828C17.1469 18.0828 18.0829 17.1469 18.0829 16C18.0829 14.8531 17.1469 13.9172 16.0001 13.9172ZM22.2469 16C22.2469 15.1375 22.2548 14.2828 22.2063 13.4219C22.1579 12.4219 21.9298 11.5344 21.1985 10.8031C20.4657 10.0703 19.5798 9.84374 18.5798 9.7953C17.7173 9.74686 16.8626 9.75468 16.0016 9.75468C15.1391 9.75468 14.2844 9.74686 13.4235 9.7953C12.4235 9.84374 11.536 10.0719 10.8048 10.8031C10.0719 11.5359 9.84539 12.4219 9.79695 13.4219C9.74851 14.2844 9.75632 15.1391 9.75632 16C9.75632 16.8609 9.74851 17.7172 9.79695 18.5781C9.84539 19.5781 10.0735 20.4656 10.8048 21.1969C11.5376 21.9297 12.4235 22.1562 13.4235 22.2047C14.286 22.2531 15.1407 22.2453 16.0016 22.2453C16.8641 22.2453 17.7188 22.2531 18.5798 22.2047C19.5798 22.1562 20.4673 21.9281 21.1985 21.1969C21.9313 20.4641 22.1579 19.5781 22.2063 18.5781C22.2563 17.7172 22.2469 16.8625 22.2469 16ZM16.0001 19.2047C14.2266 19.2047 12.7954 17.7734 12.7954 16C12.7954 14.2266 14.2266 12.7953 16.0001 12.7953C17.7735 12.7953 19.2048 14.2266 19.2048 16C19.2048 17.7734 17.7735 19.2047 16.0001 19.2047ZM19.336 13.4125C18.9219 13.4125 18.5876 13.0781 18.5876 12.6641C18.5876 12.25 18.9219 11.9156 19.336 11.9156C19.7501 11.9156 20.0844 12.25 20.0844 12.6641C20.0846 12.7624 20.0653 12.8598 20.0277 12.9506C19.9902 13.0415 19.935 13.124 19.8655 13.1936C19.796 13.2631 19.7134 13.3182 19.6226 13.3558C19.5317 13.3933 19.4343 13.4126 19.336 13.4125Z" fill="black"/>
</svg>
